<svg xmlns="http://www.w3.org/2000/svg" width="1024" height="1024" viewBox="0 0 1024 1024">
<defs>
<linearGradient id="bg" x1="0" y1="0" x2="0" y2="1"><stop offset="0" stop-color="#271c45"/><stop offset=".55" stop-color="#160f26"/><stop offset="1" stop-color="#0b0913"/></linearGradient>
<radialGradient id="gp" cx="27%" cy="22%" r="55%"><stop offset="0" stop-color="#ff5c8a" stop-opacity=".55"/><stop offset="1" stop-color="#ff5c8a" stop-opacity="0"/></radialGradient>
<radialGradient id="go" cx="78%" cy="82%" r="58%"><stop offset="0" stop-color="#ffb86c" stop-opacity=".5"/><stop offset="1" stop-color="#ffb86c" stop-opacity="0"/></radialGradient>
<radialGradient id="halo" cx="50%" cy="42%" r="50%"><stop offset="0" stop-color="#ff7da2" stop-opacity=".22"/><stop offset="1" stop-color="#ff7da2" stop-opacity="0"/></radialGradient>
<linearGradient id="liq" x1="0" y1="0" x2="0" y2="1"><stop offset="0" stop-color="#ff6f9a"/><stop offset="1" stop-color="#ffc070"/></linearGradient>
<linearGradient id="sheen" x1="0" y1="0" x2="1" y2="1"><stop offset="0" stop-color="#ffffff" stop-opacity=".55"/><stop offset="1" stop-color="#ffffff" stop-opacity="0"/></linearGradient>
<radialGradient id="lime" cx="50%" cy="45%" r="55%"><stop offset="0" stop-color="#f3ffb6"/><stop offset="1" stop-color="#bce06a"/></radialGradient>
</defs>
<rect width="1024" height="1024" fill="url(#bg)"/>
<rect width="1024" height="1024" fill="url(#gp)"/>
<rect width="1024" height="1024" fill="url(#go)"/>
<g fill="#fff"><circle cx="250" cy="250" r="3" opacity=".5"/><circle cx="800" cy="200" r="2.4" opacity=".4"/><circle cx="180" cy="640" r="2.6" opacity=".35"/><circle cx="860" cy="700" r="3" opacity=".4"/><circle cx="540" cy="150" r="2" opacity=".35"/></g>
<ellipse cx="512" cy="430" rx="280" ry="320" fill="url(#halo)"/>
<ellipse cx="512" cy="826" rx="160" ry="26" fill="#000" opacity=".34"/>
<g stroke="#fdf2f7" stroke-width="15" stroke-linecap="round" stroke-linejoin="round" fill="none">
  <path d="M318 360 L512 606 L706 360"/>
  <ellipse cx="512" cy="356" rx="206" ry="30"/>
  <line x1="512" y1="606" x2="512" y2="792"/>
  <path d="M404 800 Q512 822 620 800"/>
</g>
<path d="M366 388 Q512 416 658 388 L512 584 Z" fill="url(#liq)"/>
<path d="M404 392 Q440 470 500 560 L478 470 Q452 430 430 398 Z" fill="url(#sheen)" opacity=".5"/>
<g transform="translate(648,356)">
  <circle r="78" fill="#cfe89a"/>
  <circle r="78" fill="url(#lime)"/>
  <circle r="78" fill="none" stroke="#a6cc57" stroke-width="11"/>
  <circle r="63" fill="none" stroke="#effad0" stroke-width="9"/>
  <g stroke="#9cc24a" stroke-width="4.5" stroke-linecap="round">
    <line x1="0" y1="0" x2="0" y2="-56"/><line x1="0" y1="0" x2="40" y2="-40"/><line x1="0" y1="0" x2="56" y2="0"/><line x1="0" y1="0" x2="40" y2="40"/><line x1="0" y1="0" x2="0" y2="56"/><line x1="0" y1="0" x2="-40" y2="40"/><line x1="0" y1="0" x2="-56" y2="0"/><line x1="0" y1="0" x2="-40" y2="-40"/>
  </g>
  <circle r="7" fill="#cfe89a"/>
</g>
<g transform="translate(470,300) rotate(18)">
  <line x1="0" y1="0" x2="120" y2="-150" stroke="#e9dcc0" stroke-width="9" stroke-linecap="round"/>
  <ellipse cx="0" cy="6" rx="34" ry="40" fill="#8fae4d"/>
  <ellipse cx="-10" cy="-6" rx="11" ry="14" fill="#c8e08a" opacity=".7"/>
  <ellipse cx="0" cy="-18" rx="11" ry="13" fill="#d6452f"/>
</g>
<g fill="#fff"><path d="M300 360 l6 18 18 6 -18 6 -6 18 -6 -18 -18 -6 18 -6 z" opacity=".85"/><path d="M770 480 l4 12 12 4 -12 4 -4 12 -4 -12 -12 -4 12 -4 z" opacity=".6"/></g>
</svg>
